<?xml version="1.0" encoding="UTF-8"?>
<svg id="Layer_2" data-name="Layer 2" xmlns="http://www.w3.org/2000/svg" viewBox="0 0 381.76 100.97">
  <defs>
    <style>
      .cls-1, .cls-2, .cls-3 {
        fill: #132335;
      }

      .cls-1, .cls-3 {
        font-size: 72px;
      }

      .cls-3, .cls-4 {
        font-family: SFProDisplay-Ultralight, 'SF Pro Display';
        font-weight: 300;
      }

      .cls-5 {
        font-family: BCSteinerLSB-Regular, 'BC Steiner';
      }

      .cls-6 {
        fill: #ecdcc8;
      }
    </style>
  </defs>
  <g id="Layer_1-2" data-name="Layer 1">
    <text class="cls-3" transform="translate(0 63) scale(.73 1)"><tspan x="0" y="0">one</tspan></text>
    <text class="cls-1" transform="translate(79.33 63)"><tspan class="cls-5" x="0" y="0">Cofee</tspan><tspan class="cls-4" x="136.44" y="0">firs</tspan></text>
    <text class="cls-3" transform="translate(294.45 63) scale(.73 1)"><tspan x="0" y="0">t</tspan></text>
    <g>
      <g>
        <path class="cls-2" d="M366.93,14.73c1.01,.14,2.02,.25,3.02,.43,1.68,.31,3.3,.84,4.77,1.74,.71,.44,1.35,.96,1.65,1.78,.28,.77,.14,1.54-.33,2.15-.66,.83-1.34,1.71-2.19,2.32-2.05,1.47-4.14,2.91-6.33,4.16-12.37,7.05-23.9,15.28-34.71,24.53-.72,.61-1.49,1.19-2.32,1.63-1.44,.77-2.47,.32-2.99-1.23-.51-1.5-.57-3.07-.46-4.64,.32-4.69,2.06-8.88,4.66-12.71,6.62-9.73,15.6-16.22,27.01-19.23,1.72-.45,3.53-.57,5.29-.84,.17-.03,.34-.06,.51-.09,.81,0,1.62,0,2.43,0Z"/>
        <g>
          <path class="cls-6" d="M366.77,12.3c.2,.04,.13-.38,.16-.46-.33,.09-.15,.57-.16,.46Z"/>
          <polygon class="cls-6" points="363.32 13.42 363.35 13.24 362.95 13.72 363.32 13.42"/>
          <path class="cls-6" d="M360.28,13.82c.41,.66,1.12-.28,1.69-.09l.11,.15,.17-.6c-.64,.17-1.46,.66-1.97,.54Z"/>
          <path class="cls-6" d="M358.19,12.66c.18,.24-.35,.33,.46-.02-.05-.02-.07-.03-.09-.05-.08,.02-.18,.04-.37,.07Z"/>
          <path class="cls-6" d="M358.56,12.59c.37-.1-.3-.17,0,0h0Z"/>
          <path class="cls-6" d="M357.01,13.17l.36-.36c-.13-.13-.53-.06-.42-.21-.41,.26-.27,.39,.05,.58Z"/>
          <path class="cls-6" d="M356.75,13.79l.19-.16c-.06-.06-.12-.06-.19,.16Z"/>
          <path class="cls-6" d="M357.35,13.28l-.41,.35c.09,.09,.16,.31,.19-.14,.02,.21,.06,0,.22-.21Z"/>
          <path class="cls-6" d="M357.65,13.31c.28,.08,.61,.09,.25,.45,.38-.16,.57-.36,.5-.47-.06-.11-.37-.14-.75,.02Z"/>
          <path class="cls-6" d="M360.24,14.58l.35,.16,.24-.28c-.12,.14-.65-.1-.59,.12Z"/>
          <path class="cls-6" d="M354.24,13.65c.02,.15,.27,.34,.37,.51l.26-.27c-.19-.05-.53-.03-.62-.24Z"/>
          <path class="cls-6" d="M354.61,14.16l-.38,.4c.42-.11,.46-.25,.38-.4Z"/>
          <polygon class="cls-6" points="356.9 14.57 357.51 13.83 356.76 14.62 356.9 14.57"/>
          <polygon class="cls-6" points="352.45 14.28 352.59 13.85 352.31 14.53 352.45 14.28"/>
          <path class="cls-6" d="M351.29,14.79c.08-.35-.45-.34-.32-.59-.3,.19-.47,.54-.63,.85,.21-.23,.5-.32,.94-.25Z"/>
          <path class="cls-6" d="M350.08,15.52c.1-.12,.18-.29,.27-.48-.11,.12-.21,.27-.27,.48Z"/>
          <path class="cls-6" d="M353.42,14.77c-.07-.07-.22-.27-.51-.27l.33,.33c.06-.02,.12-.04,.18-.06Z"/>
          <path class="cls-6" d="M353.24,14.84h-.01c-.2,.05-.34,.1-.4,.12,.05-.01,.17-.05,.41-.12Z"/>
          <path class="cls-6" d="M353.46,14.75l-.05,.02s.05,.04,.05-.02Z"/>
          <path class="cls-6" d="M355.58,14.57c-.2,.32-.67,.75-.02,.91,.1-.34-.27-.44,.02-.91Z"/>
          <path class="cls-6" d="M353.87,15.17l.52-.07c-.05-.1-.19-.23-.09-.39l-.43,.46Z"/>
          <polygon class="cls-6" points="353.68 15.39 353.87 15.17 353.67 15.2 353.68 15.39"/>
          <path class="cls-6" d="M351.06,15.53c-.13,.26-.35,.37-.6,.51,.31-.04,.61-.12,.87-.24-.01-.14,.01-.41-.28-.27Z"/>
          <path class="cls-6" d="M352.13,15.22l-.04,.04s.07,.02,.04-.04Z"/>
          <polygon class="cls-6" points="347.99 17.21 348.06 17.26 348.04 17.19 347.99 17.21"/>
          <path class="cls-6" d="M351.41,15.85c.24-.01,.32-.16,.39-.33-.14,.1-.29,.2-.46,.28,0,.06,.02,.1,.08,.05Z"/>
          <path class="cls-6" d="M349.45,16.01c.15,.03,.3,.05,.46,.06-.16-.08-.46-.17-.46-.06Z"/>
          <path class="cls-6" d="M351.98,15.17s.01-.02,.02-.03c-.1-.06-.08-.02-.02,.03Z"/>
          <path class="cls-6" d="M351.98,15.17c-.08,.1-.13,.23-.18,.35,.11-.08,.21-.17,.29-.27-.04-.02-.08-.05-.11-.08Z"/>
          <path class="cls-6" d="M348.54,20.01c-.16-.37,.17-.96,.8-.79,.29-.48-.56-1.51-1.28-1.96,.07,.16,.13,.3-.21,.74,.26,.11,1.23-.05,1.02,.46-.5,.47-.55,.11-.93,.08,.47,.31-.4,1.04,.08,1.61l.38-.5c.06,.09-.03,.35,.15,.37Z"/>
          <path class="cls-6" d="M348.96,16.86l.17-.14c-.25,.04-.47-.02-.9-.16-.23,.33-.23,.49-.19,.62l.96-.41-.04,.09Z"/>
          <path class="cls-6" d="M349.99,16.32c.02,.46-.35,.83,.12,1.13,.54-.27,.24-.5,.5-.82-.87,.49,.16-.33-.6-.27,.15-.15,.3-.24,.45-.32-.19,.02-.37,.04-.56,.03l.03,.02h0s0,0,0,0c.06,.03,.09,.06,.03,.05,0,0-.01,.01-.02,.02,.02,.06,.02,.11,.03,.17-.3,.04-.09-.08-.03-.17,0-.02,0-.04-.02-.06h0c-.28,.2-.55,.41-.81,.64,.22-.04,.45-.18,.86-.4Z"/>
          <path class="cls-6" d="M355.36,16.53s-.05-.06-.06-.09c-.04,.07-.05,.11,.06,.09Z"/>
          <path class="cls-6" d="M354.9,16.41c.05-.08,.05-.26,.28-.29,.23,.06,.07,.2,.12,.33,.09-.15,.36-.45-.12-.51l-.05,.08c-.42-.02-1.08-.36-1.03-.44,.24,.33,.43,.56,.8,.83Z"/>
          <path class="cls-6" d="M352.48,16.41c-.23,.16-.46,.33-.67,.5l.52,.18-.1-.2c.46-.08,.27-.3,.26-.48Z"/>
          <polygon class="cls-6" points="347.8 17.06 347.7 16.61 347.56 17.39 347.8 17.06"/>
          <polygon class="cls-6" points="346.86 17.62 346.71 17.25 346.57 17.6 346.86 17.62"/>
          <path class="cls-6" d="M339.73,43.11l.12-.23c-.07,.1-.1,.17-.12,.23Z"/>
          <path class="cls-6" d="M338.37,44.15l.09,.18c0-.13-.03-.22-.09-.18Z"/>
          <path class="cls-6" d="M327.96,36.2c-.5,.14-1.21,.25-.79,.42l.44,.1c.05-.27,.19-.42,.36-.52Z"/>
          <path class="cls-6" d="M328.72,53.59c0-.07,0-.15-.01-.22-.08,.08-.16,.16-.23,.24-.07,.06-.12,.08-.18,.13,.12-.02,.26-.04,.42-.15Z"/>
          <path class="cls-6" d="M329.85,51.17c.03,.15,.07,.28,.12,.41-.02-.13-.06-.26-.12-.41Z"/>
          <path class="cls-6" d="M346.95,37.14l-.03-.52c-.35,.25-.07,.32,.03,.52Z"/>
          <path class="cls-6" d="M337.85,24.19c-.34,.08-.57,.2-.75,.33,.45-.07,.92,0,.75-.33Z"/>
          <path class="cls-6" d="M342.04,47.15c.06-.15,.06-.26,0-.33-.07,.15-.08,.27,0,.33Z"/>
          <path class="cls-6" d="M336.45,25.13c.07,0,.12-.03,.19-.04,.11-.21,.24-.41,.46-.58-.33,.05-.65,.18-.65,.62Z"/>
          <path class="cls-6" d="M373.43,20.06h.07c-.06-.03-.07-.02-.07,0Z"/>
          <path class="cls-6" d="M370.08,13.26c.1-.01,.26,0,.43,.04-.07-.04-.21-.07-.43-.04Z"/>
          <path class="cls-6" d="M343,19.74c.18-.15,0-.06,0,0h0Z"/>
          <path class="cls-6" d="M344.86,20.56c-.01,.07-.01,.14,.04,.22-.04-.1-.05-.17-.04-.22Z"/>
          <path class="cls-6" d="M336.79,28.63h-.01c.11,.02,.09,.02,.01,0Z"/>
          <path class="cls-6" d="M343.39,19.71c-.1,0-.21,.02-.32,.06,.06,0,.16-.01,.32-.06Z"/>
          <path class="cls-6" d="M343.24,19.56c.08-.03,.14-.06,.19-.08-.02-.08-.06-.1-.19,.08Z"/>
          <path class="cls-6" d="M342.74,19.94c.11-.08,.22-.13,.34-.17-.05,0-.08,0-.08-.03-.05,.04-.13,.1-.26,.2Z"/>
          <path class="cls-6" d="M360.88,29.71s.04,0,.06,.01c.1-.27,.03-.19-.06-.01Z"/>
          <path class="cls-6" d="M329.85,43.22s-.01-.02-.01-.03l-.02,.02h.04Z"/>
          <path class="cls-6" d="M329.97,44c-.44-.43-.33-.59-.16-.78l-1.27-.11c.47,.31,.94,.6,1.42,.89Z"/>
          <path class="cls-6" d="M342.91,40.52l-.68,.03c.15-.92,.68-1.04-.07-1.16,.75,1.13-1.66,1.43-.9,2.56h-.47c.09-.06,.06-.13,.15-.18-.97-.08,.18,1.1-.67,1.51-.32,.11-.62,.1-.54-.17l-.36,.71c-.18,.11-.29-.11-.11-.22l-.79,.76-.02-.04c0,.26-.06,.74-.11,.96-.34,.02,.02-.2-.14-.29l-.27,.63c-.41-.12-.23-.7,.13-.92-1.29-.71-.18,.58-1.63,.73l.34-.49c-.77-.37-.94,.13-1.75,.17,.28,.1,1.77,.12,1.47,.8-.21,.04-.43,.15-.53,.59-.31-.37-.5-.07-.82,.23l-.38-.51c-.24,.44,0,.67-.04,1.07-.44,.28-.84-.03-1.2-.27-.71,.46,.95,.24,.27,.97-.73,.28-.79,.68-1.14,1.48-.44,.09-.17-.37-.38-.43v.66c-.07,.05-.13-.1-.16-.18-.13,.37,.33,.56,.03,1.04,.12,.36-.16,.26-.43,.16-.27-.1-.45-.26-.56,.31-.1-.16-.02-.48-.08-.75-.13,.42-.24,.6-.32,.8-.1,.2-.17,.43-.49,1-.12-.14-.21-.3-.29-.49,.05,.32-.03,.69-.26,1.06-.22,.38-.6,.74-.99,.96,.04,.36,.15,.52,.22,.65-.35,.07-.71,.05-1.02-.05-.04-.17,.13-.29,.38-.46-.07,.01-.14,.03-.2,.04-.06-.23-.04-.34,.1-.54,.14-.19,.33-.36,.52-.54,0,.22-.02,.45,0,.68,.42-.44,.78-1.02,.93-1.55-.07,.1-.18,.17-.27,.19,.1-.13,.17-.26,.19-.35,.02-.1-.11,.08-.29,.25,.11-.34,.23-.68,.36-1.02l-.21,.36c-.07-.33-.05-.68,0-1-.72,.46-1.91,.72-2.32-.5,.54,.11,.85-.27,1.47-.46-.32,.23-.23,.39-.07,.5,.16,.11,.38,.15,.36,.38,.02-.25,.31-.41,.41-.46-.22-.02-.45-.11-.67-.25,.5-.21,.36-.31,.56-.52-.99,.44-.69-.31-.98-.7,.34-.03,.67,.14,.59,.44,.38-.2,.09-.27-.21-.48-.3-.21-.61-.43-.26-.72,0,.14-.06,.21,.11,.28-.27-.34,.03-1.12,.31-.9v.14c.18-.89,.43-2.7-.33-3.05,.11,.02,.97,.36,1.12,.45-.81-.73-1.58-1.53-2.31-2.39,.66,.35,2.48,.36,2.65,1.19,.16-.18,.36-.38,.25-.89-.15,.1-1.12,.02-1.12-.2,.96-.27,.54-.24,1.43-.63-.23,.15-1.21-.49-1.04-.82,.14,.12,1.06,.4,1.12,.56-.25-.41-.47-.82-.69-1.25,.1,.29,.86,.42,1.22,.37-.24-.01,.33-.67,.34-.92l-.39,.22c.58-.8-.97-1.6-.41-2.49,.14,.23,1.09,.96,1.47,.6-.39-.47-1.85-2.33-1.67-3.39l.37,.03,.11-.81c.43,.87,1.27,2.92,1.56,3.81,.42-.18,.39,.11,.65-.37,.36,0,.24,.5,.17,.64,.28-.32,.56-.64,.85-.95-.6-.32,.02-1.19-.47-1.48-.09,.53-.17,1.05-.23,1.56-.6-.31-1.14-1.74-.47-2.47,.36-.04,.87,.84,1.07,.95-.12-.23,.16-.99,.34-.96l.06,.54c.5-.28-.21-1.22,.69-1.33,.17-.15,1.08,.02,.79-.25-.81-.2-2.74-1.6-3.03-2.15,.08-.04,1.32-.49,1.78-.43,.7,.11,.75,1.34,1.35,1.43-.13-.13-.18-.42-.18-.53,.27-.07,.38,.44,.63,0-.47-.51,.7-.74-.29-.55,.17-.5,.43-.31,.8-.75-.45-.16-.76-1.39-.55-1.9,.11,.14,.35,.21,.46,.24,.74-.71,1.37-.86,2.05-1.53,.18,.06,.65-.1,.71,.24,.02-.18-.05-.43,.16-.64,.81,.06-.42,.5,.38,.74-.24-.31,.18-.9,.33-1.37-.5-.37-.79,.56-.93,1.02-.58-.61-.64-1.76-.12-2.74,.5-.68,.63,.19,.66,0,1.26-.85,.08-2,1.49-2.29,.73,.12,.66,.84,.98,1.09-.39,.56-1.02,.32-1.35,.63,.19-.05,.39-.1,.59-.14-.06,.26-.3,.65-.59,.68,.31,.05,.81-.33,1.41-.74,.58-.43,1.25-.89,1.86-1.02,.07-.26,.26-.62,0-.7l-.26,.27c-.53-.17,.24-.89-.26-.79,.24-.54,.45-1.26,1.2-1.42l.44,.45c-.11-.15-.59-.07-.66,.19,.11-.39,1.35,.14,1.21-.71l-.64-.1c.27-.53,.49-1.42,1.15-1.56-.55-.39-.09,.13-.85-.26,.78,.55-1.44,.81-.42,1.28-.83-.46-.87,.12-1.77-.14,.13,.16,.39,.2-.12,.42,.01,.06,0,.16,0,.22-.02,0-.02,0-.04,0h.04s0,.05,.01,0c.16,0,.3,.03,.4,.1,.03,.54-.68,1-.78,1.36-.32,.1-.02-.26-.29-.35l-.15,.54c-.3-.35-1.12-.11-.66-.77l-.56,.39c-.47,.04-.98,.3-1.14,.65-.33,.11-.33,.9-.33,.44l-.65,.9-.08-.08c-.87,.62-1.13,1.97-2.57,2.2-.17,.33-.34,.69-.85,1.01l-.36-.19c-.24,.41-1.23,.73-1.07,1.15-1.12-.35-1.66,1.51-2.31,2.01l.37,.35c-.38,.4-.58,.92-.84,1.58l.38,.24c-.07,.67-1.16,1-1.65,1.79-.1-.15,.07-.32,.25-.39-1.48,.32-.73,2.33-1.86,2.81,.01,.3-.13,.43-.32,.53,.01-.02,.01-.04,.01-.07-.02,.02-.04,.05-.06,.09-.12,.06-.26,.12-.38,.2,.15-.04,.28-.09,.36-.15-.09,.18-.18,.47-.23,.78l-.48-.11s-.01,.04-.02,.07c-.29,.18,.1,.31,.49,.34,0,.17,.03,.33,.08,.48-.81-.14-.1,.8-.99,.73,.28,.35-.32,1.49,.43,1.94-.11-.03-.19,.03-.14-.12-.21,.26-.41,.53-.28,.89l-.62-.07c.18,.31,.37,.63,.56,.93-.48,.29-.75,.41-1.07-.14,.4,1.21,.01,.9,.5,1.92l-.38-.13c-.07,.31,.36,.91,0,1.02-.44,.27-.62,1.13-.74,2.14-.06,.52-.12,1.07-.18,1.62-.07,.67-.14,1.41-.23,2.09,.54-.42,.44-.11,.33,.3-.11,.41-.2,.95,.23,.75-.22,.27-.28,.71-.59,.44,.27,.56,.33,1.07,.46,1.49,.13,.41,.33,.73,.79,.74-.11,.34-.4,.12-.45,.36,.09,.04,.37,.11,.35,.34-.03,.24-.25,.06-.45,0,.84,.95,1.46,.18,1.87-.45,.24,.67,.59,.74,1.12,.33,.09,.26,.34,.61-.37,.55,.18,.09,.75,.26,1.29,.19,.54-.06,1.01-.33,1.04-.69,.1,.14,.49-.16,.57-.29,.77-.37,.86-.37,1.57-.95l-.24,.04c.01-.48,.12-.62,.31-.71,.18-.09,.46-.16,.65-.38l.03,.08c1.34-.41,.28-.59,1.68-.94l-.35-.33c-.54-.9,1.27-.27,1.56-1.03l-.37-.05c.08-.52,1.74,.38,2.12,.23,.12,.02-.01,.2-.06,.32,1.18-.18-.3-.57,.2-1.17,.32,.17,.4,.78,.84,.51,.37,.05,.47-1.8,1.42-1.73-.28-.11-.57-.22-.41-.59,.37-.41,1.77-.14,1.65-1.09,.1,.01,.16,.05,.2,.1,.19-.43,.85-1.11,.78-1.62,1.31,1.07,1.57-2.22,2.49-.99l.97-.84,.07,.15c.72-.41,.73-.87,.75-1.34,.21-.03,.19,.17,.22,.24,1.15-.46,1.2-.58,1.57-1.79l.37,.34c.06-.39,1.85-.38,2.48-1.52,.02,.05,.06,.15,.02,.26,.75-1.24,3.37-.65,2.76-2.42l.48-.86c-1.02,.51-.3-.74-.85-.73,.31-.34,1.26-.19,.86,.19l-.12-.03c.36,.89,1.36-.5,1.68,.05,1.83-1.26,3.93-1.99,5.72-3.04l-.59-.5,.64-.34c.25,.05,.52,.35,.06,.6,.45,.21,.56-.75,.49-.89,1.02-.28,.11,.93,.38,.79l.33-.27-.13-.02c.14-.43,0-.72,.55-1.01,.41-.08,.41,.28,.55,.23,.03,.04,.08,.04,.21-.1l.82-.41-.61-.31c.2-.45,.75-.41,.06-.76,1.05,.54,3.12-1.39,3.63-1.33,.3-.66,.79-.95,1.43-1.29-.22,0-.65-.5-.09-.76,.53,1.25,1.26-.12,2.2,.4-.72-.28,1.36-1.12,.27-1.47,.48-.2,.31,.4,.81,.43,.35-.56,.94-.88,1.59-1.18,.41-.22,.81-.46,1.18-.76,.43-.36,.82-.78,1.13-1.25-.14-.1-.59,.02-.55-.44,.49-.13,1-.33,1.48-.57,.11-.43-.8-.55,.05-1.13-.18,.08-.45,.18-.43-.06,.44-.75,.44-1.69,.13-2.49-.57-1.51-2.13-2.38-3.59-3.06-1.25-.58-2.38-1.07-3.54-1.96,.37,.43,.07,.39-.26,.34,.2,.12-.09,.43-.09,.67l-1.14-.84c-.34,.62-1.35-.15-1.57,.46l.41-.06c-.63,.66,.47,1.74,.23,2.68,.72-.75,1.27,1.42,2.34,.45,.14,.24-.23,.26-.19,.5,.3-.35,.6-.36,1.01-.04l-.08,.08c.64,.15,1.12,.43,1.42,.71,.22,.25,.38,.51,.55,.82,.13-.11,.25-.22,.37-.34,.1,.17-.01,.28-.07,.4,.88-.24-.36-.38,.5-.74-.3,.43,0,.65,.13,1,.13,.31,.04,.66-.59,.71-.05,.24,.68-.07,.6,.21l-.37,.04c.14,.04,.28,.08,.41,.12-.17,.18-.64,.14-.9,.07,.05-.02-.02-.1-.03-.13-.24,.03-.27,.11-.27,.22,0,.1,.01,.22-.06,.21,.1-.02,.2-.04,.3-.07-.03,.15-.12,.3-.24,.44l-.09,.1-.16,.15c-.11,.1-.21,.19-.31,.26-.65,.48-1.31,1.02-1.74,1.67l.22,.12c-.69,.97-.87,.31-1.78,1.13v-.07c-.07,.32-.29,.59-.58,.75,.12-.38-.76-.12-.57-.58-.78,1-.31,.6-.57,1.72l-.35-.23c-.07,.43,0,.59-.49,.98,.29-.53-.63-.29-.34-.94-1.55-.04-1.28,1.69-2.4,.97,0,1.19,1.27-.08,1.09,.28,.41,.15-.05,.91-.45,1.03-.37,.19-1.28-.77-2.18-.21,.09-.05,.06-.12,.15-.17-.48-.02-.49,.7-1.12,.59,.09,.67-.56,.3-.21,1.02l.73-.66c-.36,.47-.32,1.52-1.32,1.61-.02-.17,.1-.49,.19-.69-.35-.06-.35,.4-.71,.34-.35-.72,.92-.76,1.1-1.59-.42-.14-.65,1.07-.85,.19,.21,1.15-.97,.42-1.14,1.52l-.21-.43c-.06,.12-.14,.44-.32,.54v-.72c-.22,.75-1.2,.21-1.52,.75,.98-.64,.53,.34,1.13,.37-.88,1.3-1.37-.61-2.61,.46,.15-.18,.84-.21,.68,.16-.31,.08-.75,.15-1.05,.05-.85,.66,.4,.32,.18,.81-.62-.29-.31,.48-.6,.89l-.27-.4c-1.19,.42,.29,1.02-.83,1.31v-.81s-.37,.46-.37,.46l-.21-.52c-.29,.68-.51,.7-1.1,.92,.31,.2,.42,.77-.01,1.09-.46-.03-.09-.49-.68,0-.03-.35-.08-.77,.44-.59-.06-.15-.03-.35-.09-.49-.51-.05-.87,.5-1.09,.66,.1-.05,.22-.1,.31-.08l-.54,1.18c-.25-.05-.22-.25-.18-.44-.15,.17-.16,.44-.4,.67-.15-.37-.4-.69-.12-1.11l-.62,.96c-.16-.1-.71-.07-.68-.27-.62,.15-.74,1.45-1.55,1.66,.01,.09-.01,.19-.11,.33-.65,.35-1.46,.34-1.83,1.29l-.81-.27c-.45,.53,1.06,.32,.31,1.2-.51,.65-.6-.31-.94-.3-.11,.52-.22,1.52-1.16,1.5,.11-.25,.33-.28,.48-.46Zm-6.4,5.38c.06-.18,.12-.63,.39-.48,.2,.55-.07,.43-.39,.48Zm-7.91,5.82c.17-.11,.17,.08,.15,.43-.11-.03-.18-.17-.15-.43Zm12.55-30.2v.03c-.41,.08-.26,.05,0-.03Zm.75-.3c.02-.1-.02-.15-.09-.19,.03,.13-.11,.24-.29,.34,.12,.07,.25,.08,.37-.15Zm22.67,10.04l-.19-.04c.21-.28,.19-.13,.19,.04Z"/>
          <path class="cls-6" d="M329.73,51.45c-.02,.12-.05,.24-.09,.37,.08-.11,.12-.24,.09-.37Z"/>
          <path class="cls-6" d="M346.96,37.24h.02s-.02-.07-.03-.1v.1Z"/>
          <path class="cls-6" d="M336.29,32.06c-.15,.07-.27,.07-.37,.06,.09,.08,.21,.09,.37-.06Z"/>
          <path class="cls-6" d="M344.92,18.26l-.37,.37c.2-.15,.33-.1,.47-.1-.07-.09-.23-.18-.1-.27Z"/>
          <path class="cls-6" d="M350.08,18.87c.04-.08,.13-.07,.17-.16l-.11-.19c-.26,.15-.37,.4-.05,.35Z"/>
          <path class="cls-6" d="M346.13,19.4c.24,.33,.43,.06,.7-.17-.02,.01-.03,.02-.05,.03-.19-.54-.42-.2-.64,.14Z"/>
          <path class="cls-6" d="M346.89,19.18c.08-.07,.17-.13,.27-.16-.08-.22-.14,.02-.27,.16Z"/>
          <path class="cls-6" d="M342.55,20.44c.2,0-.21-.49-.04-.4-.14-.53-.56,1.14,.04,.4Z"/>
          <polygon class="cls-6" points="347.04 20.42 346.68 20.04 346.72 20.49 347.04 20.42"/>
          <path class="cls-6" d="M344.6,21.5c.17-.06,.34-.13,.52-.18-.05-.07-.02-.14,.03-.22-.29,.15-.64,.28-.55,.4Z"/>
          <path class="cls-6" d="M345.15,21.1c.15-.08,.29-.18,.32-.3-.08,.05-.24,.17-.32,.3Z"/>
          <polygon class="cls-6" points="346.49 20.92 346.3 20.91 345.96 21.08 346.49 20.92"/>
          <path class="cls-6" d="M339.93,24.89c-.12,.16-.23,.33-.34,.5,.07,.17,.26,.14,.37-.06,.02-.19,.15-.37-.03-.44Z"/>
          <path class="cls-6" d="M342.15,24.84c-.18,.02-.26-.06-.43-.14l.38,.5,.06-.36Z"/>
          <path class="cls-6" d="M340.97,26c.06,.16-.29,.91,.22,.41-.07-.17,.28-.64-.22-.41Z"/>
          <polygon class="cls-6" points="334.41 31.66 334.5 31.54 333.69 30.91 334.41 31.66"/>
          <path class="cls-6" d="M332.27,39.13c.51-.43-.48-.43,.06-.78-.14-.25-.44,.29-.55,.06,.03,.46-.18,.57,.49,.73Z"/>
          <path class="cls-6" d="M331.78,38.4c0-.07-.02-.16-.04-.25,0,.13,.02,.2,.04,.25Z"/>
          <polygon class="cls-6" points="368.52 12.48 368.09 12.21 368.33 12.59 368.52 12.48"/>
          <path class="cls-6" d="M367.54,13.11v-.66s-.37,.54-.37,.54c.11-.01,.31-.04,.37,.11Z"/>
          <path class="cls-6" d="M334.72,45.67l.07,.14c.16,.09,.25,.03,.43-.08l-.5-.06Z"/>
          <polygon class="cls-6" points="339.79 42.27 339.7 42.32 340.21 42.66 339.79 42.27"/>
          <path class="cls-6" d="M343.41,38.58c-.18,.1-.3,.35-.49,.46,.3-.36,.97,.09,.49-.46Z"/>
        </g>
      </g>
      <g>
        <path class="cls-2" d="M341.35,63.03c-2.73,.01-5.4-.37-7.9-1.52-.7-.32-1.37-.72-1.97-1.2-1.17-.93-1.34-2.14-.58-3.42,.67-1.13,1.64-1.99,2.71-2.69,2.3-1.51,4.61-3.02,7.01-4.38,12.02-6.85,23.22-14.85,33.76-23.79,.68-.57,1.42-1.1,2.2-1.52,1.46-.77,2.51-.32,3.03,1.26,.55,1.69,.56,3.43,.38,5.17-.53,5.15-2.71,9.65-5.76,13.72-6.45,8.57-14.81,14.43-25.17,17.33-2.51,.7-5.08,1.06-7.7,1.05Z"/>
        <g>
          <path class="cls-6" d="M341.51,65.47c-.21-.04-.14,.38-.17,.46,.36-.09,.16-.57,.17-.46Z"/>
          <polygon class="cls-6" points="344.93 64.31 344.89 64.48 345.33 64 344.93 64.31"/>
          <path class="cls-6" d="M348.08,63.76c-.45-.63-1.11,.36-1.72,.2l-.12-.15-.16,.61c.68-.2,1.49-.75,2-.67Z"/>
          <path class="cls-6" d="M350.15,64.81c-.18-.24,.29-.34-.41,.03,.05,.02,.06,.03,.09,.05,.07-.02,.16-.05,.32-.08Z"/>
          <path class="cls-6" d="M349.83,64.89c-.34,.11,.28,.16,0,0h0Z"/>
          <path class="cls-6" d="M351.29,64.29l-.36,.37c.14,.13,.53,.05,.42,.21,.4-.26,.26-.39-.07-.57Z"/>
          <path class="cls-6" d="M351.53,63.67l-.19,.17c.06,.05,.12,.06,.19-.17Z"/>
          <path class="cls-6" d="M350.94,64.19l.4-.35c-.1-.09-.17-.31-.19,.14-.02-.21-.06,0-.21,.21Z"/>
          <path class="cls-6" d="M350.65,64.16c-.28-.08-.61-.08-.26-.44-.78,.34-.52,.78,.26,.44Z"/>
          <path class="cls-6" d="M348.07,63.01l-.36-.13-.22,.29c.11-.14,.66,.05,.58-.16Z"/>
          <path class="cls-6" d="M354.05,63.74c-.03-.15-.28-.32-.38-.5l-.25,.27c.2,.04,.53,.03,.63,.23Z"/>
          <path class="cls-6" d="M353.67,63.24l.37-.42c-.42,.13-.45,.27-.37,.42Z"/>
          <polygon class="cls-6" points="351.37 62.89 350.77 63.64 351.51 62.84 351.37 62.89"/>
          <polygon class="cls-6" points="355.83 63.07 355.7 63.49 355.96 62.81 355.83 63.07"/>
          <path class="cls-6" d="M356.96,62.5c-.07,.35,.46,.33,.33,.59,.3-.19,.47-.53,.61-.85-.2,.23-.49,.32-.94,.26Z"/>
          <path class="cls-6" d="M358.16,61.75c-.1,.12-.17,.3-.26,.49,.11-.13,.2-.28,.26-.49Z"/>
          <path class="cls-6" d="M354.84,62.59c.07,.07,.23,.27,.52,.26l-.34-.33c-.06,.02-.12,.04-.18,.06Z"/>
          <path class="cls-6" d="M355.01,62.52h.01c.2-.06,.34-.1,.4-.12-.05,.02-.17,.05-.41,.12Z"/>
          <path class="cls-6" d="M354.8,62.61l.05-.02s-.05-.04-.05,.02Z"/>
          <path class="cls-6" d="M352.69,62.85c.19-.32,.66-.75,0-.91-.09,.34,.29,.43,0,.91Z"/>
          <path class="cls-6" d="M354.38,62.2l-.51,.1c.05,.1,.19,.22,.1,.38l.41-.48Z"/>
          <polygon class="cls-6" points="354.57 61.98 354.38 62.2 354.57 62.16 354.57 61.98"/>
          <path class="cls-6" d="M357.18,61.77c.13-.26,.35-.37,.58-.53-.3,.06-.6,.14-.87,.26,.02,.14,0,.41,.29,.27Z"/>
          <path class="cls-6" d="M356.12,62.11l.04-.04s-.07-.02-.04,.04Z"/>
          <polygon class="cls-6" points="360.2 60 360.13 59.95 360.15 60.02 360.2 60"/>
          <path class="cls-6" d="M356.82,61.45c-.24,.01-.32,.16-.38,.34,.14-.11,.29-.2,.46-.28,0-.06-.02-.1-.08-.05Z"/>
          <path class="cls-6" d="M358.77,61.23c-.15-.03-.3-.04-.45-.04,.16,.07,.47,.16,.45,.04Z"/>
          <path class="cls-6" d="M356.27,62.15s-.01,.02-.02,.03c.1,.05,.08,.02,.02-.03Z"/>
          <path class="cls-6" d="M356.27,62.15c.08-.1,.12-.24,.17-.36-.11,.09-.21,.18-.28,.28,.04,.02,.08,.05,.12,.08Z"/>
          <path class="cls-6" d="M359.57,57.22c.17,.36-.15,.95-.78,.81-.28,.49,.6,1.49,1.33,1.92-.07-.16-.14-.3,.19-.75-.26-.1-1.23,.09-1.02-.43,.48-.5,.54-.14,.93-.11-.48-.29,.38-1.04-.12-1.6-.12,.17-.24,.35-.36,.51-.06-.09,.03-.35-.16-.36Z"/>
          <path class="cls-6" d="M359.25,60.39l-.17,.14c.25-.04,.47,0,.9,.13,.22-.34,.22-.5,.17-.63l-.94,.45,.04-.09Z"/>
          <path class="cls-6" d="M358.23,60.94c-.04-.46,.33-.84-.16-1.13-.53,.29-.22,.51-.47,.84,.84-.53-.15,.34,.6,.24-.14,.15-.29,.25-.44,.34,.18-.03,.37-.05,.55-.05h-.03s0-.01,0-.01h0c-.06-.04-.09-.06-.03-.05,0,0,.01-.01,.02-.02-.02-.06-.03-.11-.03-.17,.3-.05,.09,.08,.03,.17,0,.02,0,.04,.02,.06h0s.8-.65,.8-.65c-.22,.04-.45,.17-.85,.42Z"/>
          <path class="cls-6" d="M352.86,60.9s.05,.06,.06,.08c.04-.07,.05-.11-.06-.08Z"/>
          <path class="cls-6" d="M353.32,61c-.04,.08-.04,.26-.27,.31-.23-.06-.07-.19-.13-.32-.09,.15-.35,.45,.13,.5l.04-.08c.41,0,1.08,.31,1.04,.39-.25-.32-.44-.54-.82-.8Z"/>
          <path class="cls-6" d="M355.74,60.93l.66-.52-.53-.17,.11,.2c-.46,.11-.26,.32-.24,.5Z"/>
          <polygon class="cls-6" points="360.39 60.14 360.51 60.59 360.63 59.8 360.39 60.14"/>
          <polygon class="cls-6" points="361.32 59.56 361.48 59.93 361.61 59.57 361.32 59.56"/>
          <path class="cls-6" d="M366.21,35.65l-.12,.23c.07-.1,.1-.17,.12-.23Z"/>
          <path class="cls-6" d="M367.58,34.62l-.09-.18c0,.13,.03,.22,.09,.18Z"/>
          <path class="cls-6" d="M379.74,40.46c.5-.16,1.19-.32,.77-.46l-.44-.08c-.04,.27-.17,.43-.33,.54Z"/>
          <path class="cls-6" d="M377.06,24.41s.04,.1,.06,.15c.11-.23,.22-.44,.32-.56-.12,.11-.25,.23-.38,.41Z"/>
          <path class="cls-6" d="M376.55,26.9c-.05-.09-.12-.18-.19-.26,.04,.1,.11,.18,.19,.26Z"/>
          <path class="cls-6" d="M358.93,41.54l.03,.52c.35-.25,.07-.32-.03-.52Z"/>
          <path class="cls-6" d="M370.15,52.77c.34-.09,.57-.2,.74-.34-.45,.08-.92,0-.74,.34Z"/>
          <path class="cls-6" d="M363.94,31.58c-.06,.15-.06,.26,0,.33,.07-.15,.09-.26,0-.33Z"/>
          <path class="cls-6" d="M371.52,51.79c-.07,0-.12,.03-.19,.04-.11,.21-.23,.42-.44,.59,.32-.06,.63-.21,.63-.64Z"/>
          <path class="cls-6" d="M333.36,58.15l-.06,.03c.07,0,.07-.02,.06-.03Z"/>
          <path class="cls-6" d="M338.29,64.77c-.11,.02-.28,0-.44-.02,.07,.04,.21,.06,.44,.02Z"/>
          <path class="cls-6" d="M365.12,57.34c-.17,.16,0,.06,0,0h0Z"/>
          <path class="cls-6" d="M363.23,56.56c.01-.07,0-.14-.04-.22,.04,.1,.05,.17,.04,.22Z"/>
          <path class="cls-6" d="M371.1,48.3h.01c-.11-.02-.09-.02-.01,0Z"/>
          <path class="cls-6" d="M364.73,57.38c.1,0,.21-.03,.31-.07-.06,0-.16,.02-.31,.07Z"/>
          <path class="cls-6" d="M364.88,57.52c-.08,.03-.13,.06-.19,.08,.02,.08,.06,.1,.19-.08Z"/>
          <path class="cls-6" d="M365.37,57.13c-.1,.08-.22,.14-.33,.18,.05,0,.08,0,.08,.03,.05-.04,.13-.11,.25-.21Z"/>
          <path class="cls-6" d="M344.92,48.82s-.04,0-.06-.01c-.1,.27-.03,.19,.06,.01Z"/>
          <path class="cls-6" d="M377.5,33.53s.01,.02,.01,.03l.02-.03h-.04Z"/>
          <path class="cls-6" d="M377.34,32.77c.47,.41,.37,.57,.2,.77l1.28,.05c-.49-.28-.98-.56-1.48-.82Z"/>
          <path class="cls-6" d="M363,38.2l.68-.02c-.16,.92-.69,1.03,.06,1.16-.74-1.14,1.67-1.41,.92-2.55h.47c-.09,.06-.06,.13-.15,.19,.97,.09-.16-1.1,.69-1.51,.32-.11,.62-.09,.54,.17l.36-.7c.18-.11,.28,.11,.1,.22l.8-.75,.02,.04c0-.26,.07-.74,.12-.96,.34-.02-.02,.2,.14,.29l.27-.63c.41,.12,.23,.7-.13,.92,1.28,.72,.18-.58,1.63-.71l-.34,.49c.77,.38,.95-.12,1.75-.15-.28-.1-1.77-.14-1.46-.82,.21-.03,.43-.15,.54-.58,.3,.38,.5,.07,.82-.23l.38,.52c.25-.44,.02-.67,.05-1.07,.45-.28,.84,.04,1.2,.29,.71-.45-.95-.25-.26-.97,.69-.25,.9-.76,1.3-1.59,.5-.12,.19,.35,.44,.39,0-.22-.03-.41-.04-.63,.07-.05,.15,.1,.19,.17,.11-.35-.37-.52-.09-.98-.3-.67,1.39,.18,1.3-.79,.15,.12,.13,.4,.26,.62,.05-.38,.12-.55,.16-.73,.06-.19,.08-.39,.27-.95,.14,.08,.27,.19,.37,.3-.25-.45,.06-1.38,.7-2.22-.11-.24-.24-.36-.33-.43,.3-.25,.62-.45,.98-.59,.09,.09-.07,.32-.27,.61,.07-.06,.14-.13,.2-.18,.13,.12,.14,.21,.04,.46-.09,.24-.25,.49-.41,.76-.05-.16-.1-.32-.16-.47-.3,.6-.49,1.23-.52,1.71,.04-.11,.12-.22,.21-.3-.06,.16-.1,.29-.1,.37,0,.08,.08-.13,.22-.38-.02,.31-.06,.64-.1,.96l.12-.4c.16,.17,.29,.42,.34,.7,.75-.8,1.97-1.43,2.51-.33-.55,.07-.82,.56-1.41,.97,.29-.34,.18-.48,0-.53-.18-.06-.4-.03-.44-.26,.03,.26-.24,.52-.34,.6,.24-.06,.48-.04,.72,.03-.47,.39-.32,.43-.5,.71,.94-.79,.73,.1,1.04,.33-.34,.11-.68,.14-.63-.2-.35,.34-.06,.29,.26,.35,.31,.03,.64,.17,.32,.42,0-.1,.04-.16-.13-.17,.15,.09,.16,.3,.1,.45-.07,.2-.21,.34-.35,.24v-.13c-.13,.86-.32,2.71,.48,3.01-.11-.01-.99-.31-1.15-.39,.84,.69,1.66,1.45,2.43,2.27-.67-.32-2.49-.22-2.71-1.05-.16,.18-.32,.4-.2,.9,.14-.11,1.12-.07,1.13,.14-.95,.32-.52,.27-1.39,.71,.22-.16,1.23,.42,1.08,.76-.14-.11-1.08-.34-1.15-.5,.27,.39,.51,.8,.76,1.21-.11-.28-.88-.37-1.24-.31,.24,0-.3,.68-.29,.93l.38-.24c-.54,.83,1.05,1.55,.53,2.47-.15-.22-1.14-.91-1.49-.53,.41,.45,1.96,2.23,1.82,3.31h-.38s-.07,.81-.07,.81c-.46-.87-1.39-2.86-1.73-3.75-.4,.2-.38-.09-.63,.39-.36,.01-.25-.49-.2-.63-.26,.33-.52,.66-.8,.98,.61,.3,.06,1.18,.55,1.44,.07-.52,.11-1.04,.15-1.56,.61,.28,1.23,1.69,.58,2.43-.35,.05-.9-.81-1.1-.92,.13,.23-.12,.97-.31,.95l-.07-.53c-.49,.27,.25,1.21-.64,1.33-.16,.15-1.08-.02-.79,.26,.82,.19,2.77,1.56,3.07,2.11-.09,.04-1.32,.5-1.77,.46-.69-.09-.78-1.33-1.38-1.41,.14,.12,.19,.42,.2,.53-.27,.08-.38-.43-.63,0,.47,.5-.7,.74,.29,.55-.17,.5-.44,.31-.79,.77,.46,.15,.8,1.38,.59,1.89-.11-.14-.35-.21-.47-.23-.73,.73-1.34,.9-2.02,1.57-.18-.05-.64,.13-.71-.22,0,.18,.06,.43-.14,.64-.82-.04,.41-.51-.39-.73,.25,.31-.17,.9-.3,1.37,.51,.36,.79-.57,.91-1.03,.6,.6,.67,1.74,.18,2.73-.47,.71-.63-.17-.65,.01-1.25,.87-.03,2-1.43,2.32-.73-.11-.68-.83-1.01-1.06,.38-.56,1.01-.35,1.33-.66l-.58,.16c.05-.27,.29-.66,.57-.69-.62-.09-2.01,1.56-3.22,1.85-.06,.26-.24,.62,.02,.7l.25-.28c.53,.15-.21,.9,.28,.78-.22,.55-.43,1.26-1.16,1.45l-.45-.44c.11,.14,.59,.05,.65-.21-.1,.39-1.35-.1-1.19,.75l.64,.08c-.25,.55-.46,1.42-1.11,1.59,.56,.37,.09-.13,.85,.23-.79-.53,1.43-.84,.39-1.29,.84,.43,.86-.15,1.77,.09-.13-.16-.4-.2,.11-.42-.01-.06,0-.16,0-.22,.02,0,.02,0,.04,0h-.04s0-.05-.01,0c-.15,0-.3-.02-.4-.09-.04-.53,.65-1.02,.74-1.38,.31-.11,.03,.26,.3,.34l.13-.54c.31,.34,1.12,.08,.68,.75l.55-.4c.47-.05,.97-.32,1.12-.68,.32-.13,.3-.91,.32-.45l.63-.91,.08,.08c.84-.66,1.1-1.98,2.5-2.25,.17-.33,.33-.69,.83-1.02l.36,.18c.21-.43,1.21-.75,1.04-1.17,1.12,.33,1.63-1.53,2.26-2.05l-.38-.34c.36-.42,.58-.91,.82-1.58l-.38-.23c.05-.69,1.15-1.03,1.63-1.86,.11,.15-.06,.32-.24,.41,1.49-.4,.64-2.39,1.76-2.92-.02-.3,.11-.44,.29-.55,0,.02-.01,.04,0,.07,.02-.02,.03-.06,.05-.09,.12-.07,.25-.13,.37-.22-.15,.05-.27,.1-.35,.16,.08-.18,.17-.48,.19-.79l.49,.09s.01-.04,.02-.07c.28-.19-.11-.31-.5-.32-.01-.17-.04-.33-.1-.47,.82,.1,.06-.8,.95-.78-.29-.33,.24-1.51-.53-1.92,.11,.03,.19-.04,.14,.11,.19-.27,.39-.55,.24-.9l.63,.04c-.2-.31-.39-.6-.61-.9,.46-.32,.72-.45,1.07,.09-.45-1.18-.07-.9-.6-1.89l.38,.11c.04-.32-.4-.89-.05-1.02,.41-.3,.57-1.14,.63-2.2,.09-1.3-.03-2.84-.07-4.19-.45,.58-.39,.24-.36-.18,.04-.43,.01-.95-.35-.64,.16-.32,.12-.73,.47-.58-.37-.43-.54-.86-.78-1.19-.24-.33-.54-.55-1.06-.42,0-.32,.4-.23,.37-.44-.11,0-.44,.03-.5-.18-.05-.2,.26-.14,.49-.15-.59-.3-1.04-.15-1.32,.12-.29,.27-.45,.68-.59,1.07-.43-.38-.75-.28-1.16,.39-.13-.21-.43-.43,.23-.71-.18,.02-.73,.08-1.26,.32-.53,.23-.99,.63-.92,.96-.15-.1-.49,.27-.55,.41-.77,.52-.8,.51-1.35,1.04l.21-.04c.18,.85-.38,.54-.79,1l-.03-.08c-1.39,.44-.3,.6-1.66,.9l.36,.33c.56,.87-1.23,.23-1.54,.98l.37,.05c-.08,.52-1.74-.4-2.12-.26-.12-.02,.01-.2,.07-.32-1.18,.17,.29,.57-.22,1.17-.32-.18-.4-.79-.84-.51-.37-.05-.49,1.79-1.44,1.71,.28,.11,.56,.22,.41,.59-.37,.42-1.77,.12-1.66,1.07-.1-.01-.16-.05-.2-.1-.2,.42-.86,1.11-.79,1.61-1.3-1.09-1.59,2.21-2.5,.97l-.98,.82-.07-.15c-.72,.4-.74,.87-.76,1.33-.22,.03-.19-.17-.22-.24-1.16,.45-1.21,.57-1.59,1.77l-.37-.35c-.06,.39-1.86,.36-2.5,1.49-.02-.05-.06-.15-.02-.26-.76,1.23-3.38,.62-2.78,2.39l-.48,.85c1.02-.51,.29,.75,.84,.74-.32,.33-1.27,.17-.86-.2l.12,.03c-.35-.9-1.36,.48-1.68-.07-1.84,1.24-3.96,1.94-5.75,2.97l.58,.5-.65,.34c-.25-.05-.51-.36-.05-.6-.45-.22-.57,.74-.5,.89-1.02,.26-.1-.94-.37-.79l-.33,.26,.12,.03c-.14,.43,0,.72-.56,1-.41,.07-.4-.29-.55-.24-.03-.05-.08-.04-.22,.1l-.82,.4,.6,.32c-.21,.45-.76,.4-.07,.76-1.04-.6-3.13,1.51-3.61,1.44-.27,.67-.76,.96-1.38,1.29,.21,0,.64,.51,.09,.76-.52-1.25-1.25,.1-2.19-.45,.72,.3-1.39,1.05-.31,1.45-.49,.18-.3-.41-.8-.46-.22,.3-.48,.54-.79,.78-.16,.12-.32,.23-.49,.36-.2,.15-.4,.3-.61,.46-.8,.64-1.66,1.51-1.95,2.54,.17,.06,.55-.19,.66,.25-.42,.26-.8,.59-1.13,.98,.07,.45,.95,.31,.45,1.12,.12-.13,.33-.31,.42-.07-.1,2.04,2.24,3.39,3.95,4.02,1.55,.59,3.07,1.02,4.57,2.05-.39-.4-.09-.39,.24-.36-.2-.11,.06-.43,.05-.67,.4,.28,.82,.54,1.25,.8,.29-.63,1.42,.03,1.58-.6l-.41,.1c.55-.73-.68-1.69-.53-2.65-.3,.41-.65,.07-1.02-.25-.37-.31-.75-.59-1.29-.07-.15-.23,.22-.27,.16-.51-.29,.36-.58,.4-1.02,.1l.08-.08c-.68-.11-1.13-.34-1.56-.63-.21-.15-.42-.3-.65-.49-.28-.2-.37-.33-.49-.47-.08,.14-.15,.28-.22,.42-.14-.15-.08-.29-.06-.42-.7,.43,.44,.31-.2,.85,.12-.48-.16-.65-.42-.88-.27-.21-.42-.55,.18-.79-.08-.22-.6,.26-.69,0l.33-.14c-.15,0-.31,0-.46,0,.05-.23,.51-.33,.8-.34-.04,.04,.07,.09,.1,.12,.39-.18-.04-.46,.13-.52-.1,.04-.19,.09-.29,.15,.01-.72,.69-.93,1.7-2.28l-.22-.13c.73-.94,.9-.27,1.84-1.08v.07c.08-.32,.3-.59,.6-.75-.13,.39,.76,.12,.57,.58,.8-1.02,.32-.61,.58-1.75l.35,.22c.06-.43-.01-.6,.46-1.01-.27,.54,.62,.28,.36,.94,1.5,.02,1.21-1.73,2.31-1.01,0-1.2-1.24,.09-1.06-.27-.4-.14,.03-.93,.44-1.05,.37-.19,1.27,.78,2.18,.23-.09,.05-.06,.12-.15,.17,.48,.03,.5-.69,1.13-.58-.08-.67,.56-.29,.22-1.01l-.74,.65c.37-.46,.34-1.52,1.34-1.6,.02,.17-.1,.49-.2,.69,.35,.06,.36-.39,.72-.33,.34,.72-.92,.75-1.12,1.57,.42,.14,.67-1.07,.85-.18-.19-1.16,.97-.41,1.15-1.51l.21,.43c.06-.12,.14-.44,.33-.54v.72c.22-.75,1.2-.2,1.52-.73-.99,.62-.52-.35-1.13-.39,.89-1.29,1.36,.62,2.61-.43-.15,.17-.85,.2-.67-.17,.31-.08,.75-.14,1.05-.03,.85-.65-.4-.32-.17-.81,.62,.29,.32-.48,.61-.89l.26,.4c1.19-.4-.27-1.02,.85-1.3l-.02,.81,.39-.46,.2,.52c.3-.68,.52-.7,1.11-.91-.31-.21-.42-.77,.02-1.08,.46,.04,.08,.5,.68,.02,.02,.35,.08,.77-.45,.58,.06,.15,.03,.35,.08,.5,.51,.05,.87-.49,1.1-.65-.1,.04-.22,.09-.31,.07l.55-1.17c.25,.05,.21,.25,.18,.45,.16-.17,.16-.44,.41-.66,.15,.37,.39,.7,.11,1.11l.63-.96c.15,.1,.71,.08,.68,.28,.62-.14,.75-1.45,1.56-1.64-.01-.09,.01-.19,.12-.33,.65-.34,1.45-.33,1.85-1.27l.81,.28c.46-.52-1.06-.33-.3-1.2,.51-.65,.59,.31,.93,.3,.11-.52,.24-1.51,1.17-1.48-.12,.25-.33,.28-.48,.46Zm6.45-5.32c-.06,.18-.12,.62-.39,.47-.2-.55,.08-.43,.39-.47Zm8.28-7.27c-.17,.2-.24,.06-.33-.18,.13-.06,.26-.02,.33,.18Zm-10.82,29.89v-.03c.41-.09,.26-.06,0,.03Zm-.74,.32c-.02,.1,.02,.15,.09,.18-.03-.13,.1-.25,.28-.34-.12-.07-.25-.07-.37,.16Zm-24.93-8.6l.19,.04c-.21,.28-.19,.13-.19-.04Z"/>
          <path class="cls-6" d="M376.6,26.61c0-.1,0-.22,0-.33-.05,.13-.06,.25,0,.33Z"/>
          <path class="cls-6" d="M358.93,41.45h-.02s.02,.07,.03,.1v-.1Z"/>
          <path class="cls-6" d="M371.55,44.87c.14-.07,.26-.08,.37-.07-.09-.08-.21-.09-.37,.07Z"/>
          <path class="cls-6" d="M363.24,58.87l.35-.38c-.19,.15-.32,.11-.46,.12,.07,.09,.24,.17,.11,.27Z"/>
          <path class="cls-6" d="M358.07,58.4c-.04,.08-.13,.07-.16,.15l.12,.19c.26-.14,.36-.4,.04-.35Z"/>
          <path class="cls-6" d="M362,57.76c-.25-.32-.44-.05-.69,.19,.02-.01,.03-.02,.05-.03,.21,.54,.43,.19,.64-.16Z"/>
          <path class="cls-6" d="M361.25,58c-.08,.07-.17,.14-.27,.17,.08,.22,.13-.03,.27-.17Z"/>
          <path class="cls-6" d="M365.55,56.62c-.2,.01,.22,.48,.05,.4,.16,.52,.53-1.16-.05-.4Z"/>
          <polygon class="cls-6" points="361.06 56.76 361.43 57.13 361.38 56.69 361.06 56.76"/>
          <path class="cls-6" d="M363.47,55.63c-.17,.07-.35,.13-.52,.19,.05,.06,.03,.14-.02,.22,.29-.16,.64-.29,.54-.41Z"/>
          <path class="cls-6" d="M362.93,56.03c-.15,.09-.28,.19-.31,.31,.08-.06,.23-.18,.31-.31Z"/>
          <polygon class="cls-6" points="361.6 56.25 361.79 56.25 362.12 56.08 361.6 56.25"/>
          <path class="cls-6" d="M368.05,52.11l.33-.51c-.07-.17-.26-.14-.37,.06-.02,.18-.14,.38,.04,.44Z"/>
          <path class="cls-6" d="M365.83,52.22c.18-.02,.26,.06,.44,.13l-.39-.49-.05,.36Z"/>
          <path class="cls-6" d="M366.99,51.02c-.07-.17,.27-.92-.23-.41,.08,.17-.25,.65,.23,.41Z"/>
          <polygon class="cls-6" points="373.43 45.23 373.34 45.35 374.16 45.96 373.43 45.23"/>
          <path class="cls-6" d="M375.29,37.73c-.49,.45,.5,.41-.02,.78,.15,.24,.43-.31,.55-.08-.05-.46,.15-.58-.53-.7Z"/>
          <path class="cls-6" d="M375.82,38.44c0,.07,.02,.15,.05,.25,0-.13-.03-.2-.05-.25Z"/>
          <polygon class="cls-6" points="340.02 65.45 340.5 65.68 340.2 65.33 340.02 65.45"/>
          <path class="cls-6" d="M340.96,64.72l.11,.65,.29-.59c-.11,.03-.31,.08-.39-.06Z"/>
          <path class="cls-6" d="M371.24,33.13l-.07-.14c-.16-.09-.25-.03-.43,.08l.5,.06Z"/>
          <polygon class="cls-6" points="366.15 36.49 366.24 36.44 365.73 36.09 366.15 36.49"/>
          <path class="cls-6" d="M362.49,40.14c.18-.1,.3-.35,.49-.46-.31,.36-.96-.1-.49,.46Z"/>
        </g>
      </g>
    </g>
  </g>
</svg>